<svg preserveAspectRatio="none" width="100%" height="100%" overflow="visible" style="display: block;" viewBox="0 0 334 217" fill="none" xmlns="http://www.w3.org/2000/svg">
<g id="Group 21">
<path id="Vector" d="M198.5 36.5H144.5V90.5H198.5V36.5Z" fill="var(--fill-0, #FFABCB)" stroke="var(--stroke-0, black)" stroke-linecap="round" stroke-linejoin="round"/>
<path id="Vector_2" d="M189.5 99.5H234.5V36.5H198.5V90.5H189.5V99.5Z" fill="var(--fill-0, #E2DEB8)" stroke="var(--stroke-0, black)" stroke-linecap="round" stroke-linejoin="round"/>
<path id="Vector_3" d="M234.5 27.5V90.5H252.5V81.5H279.5V45.5H261.5V27.5H234.5Z" fill="var(--fill-0, #E2DEB8)" stroke="var(--stroke-0, black)" stroke-linecap="round" stroke-linejoin="round"/>
<path id="Vector_4" d="M288.5 81.5H252.5V144.5H270.5V117.5H288.5V81.5Z" fill="var(--fill-0, #A3D2DB)" stroke="var(--stroke-0, black)" stroke-linecap="round" stroke-linejoin="round"/>
<path id="Vector_5" d="M252.5 162.5V90.5H234.5V99.5H216.5V126.5H225.5V162.5H252.5Z" fill="var(--fill-0, #A3D2DB)" stroke="var(--stroke-0, black)" stroke-linecap="round" stroke-linejoin="round"/>
<path id="Vector_6" d="M189.5 99.5V117.5H180.5V162.5H225.5V126.5H216.5V99.5H189.5Z" fill="var(--fill-0, #A3D2DB)" stroke="var(--stroke-0, black)" stroke-linecap="round" stroke-linejoin="round"/>
<path id="Vector_7" d="M153.5 108.5V117.5H180.5V171.5H108.5V144.5H126.5V108.5H153.5Z" fill="var(--fill-0, #79DAED)" stroke="var(--stroke-0, black)" stroke-linecap="round" stroke-linejoin="round"/>
<path id="Vector_8" d="M144.5 45.5H108.5V108.5H153.5V90.5H144.5V45.5Z" fill="var(--fill-0, #F1C9A9)" stroke="var(--stroke-0, black)" stroke-linecap="round" stroke-linejoin="round"/>
<path id="Vector_9" d="M90.5 108.5H126.5V144.5H108.5V171.5H81.5V117.5H90.5V108.5Z" fill="var(--fill-0, #A3DBC6)" stroke="var(--stroke-0, black)" stroke-linecap="round" stroke-linejoin="round"/>
<path id="Vector_10" d="M54.5 126.5H81.5V180.5H63.5V162.5H54.5V126.5Z" fill="var(--fill-0, #A3DBC6)" stroke="var(--stroke-0, black)" stroke-linecap="round" stroke-linejoin="round"/>
<path id="Vector_11" d="M108.5 54.5H90.5V63.5H81.5V117.5H90.5V108.5H108.5V54.5Z" fill="var(--fill-0, #F1C9A9)" stroke="var(--stroke-0, black)" stroke-linecap="round" stroke-linejoin="round"/>
<path id="Vector_12" d="M54.5 81.5H81.5V126.5H45.5V90.5H54.5V81.5Z" fill="var(--fill-0, #F1C9A9)" stroke="var(--stroke-0, black)" stroke-linecap="round" stroke-linejoin="round"/>
<path id="Vector_13" d="M189.5 90.5H153.5V117.5H189.5V90.5Z" fill="var(--fill-0, #529C55)" stroke="var(--stroke-0, black)" stroke-linecap="round" stroke-linejoin="round"/>
<path id="Vector_14" d="M90.5 27.5H72.5V45.5H90.5V27.5Z" fill="var(--fill-0, #C9F1A9)" stroke="var(--stroke-0, black)" stroke-linecap="round" stroke-linejoin="round"/>
<path id="Vector_15" d="M81.5 198.5H63.5V216.5H81.5V198.5Z" fill="var(--fill-0, #C9F1A9)" stroke="var(--stroke-0, black)" stroke-linecap="round" stroke-linejoin="round"/>
<path id="Vector_16" d="M333.5 81.5H306.5V108.5H333.5V81.5Z" fill="var(--fill-0, #C9F1A9)" stroke="var(--stroke-0, black)" stroke-linecap="round" stroke-linejoin="round"/>
<path id="Vector_17" d="M27.5 18.5V0.5H0.5V27.5H9.5V45.5H36.5V18.5H27.5Z" fill="var(--fill-0, #C9F1A9)" stroke="var(--stroke-0, black)" stroke-linecap="round" stroke-linejoin="round"/>
</g>
</svg>
