<svg width="28" height="28" viewBox="0 0 28 28" fill="none" xmlns="http://www.w3.org/2000/svg">
<path d="M14 0C6.28031 0 0 6.28031 0 14C0 21.7197 6.28031 28 14 28C21.7197 28 28 21.7197 28 14C28 6.28031 21.7197 0 14 0ZM20.032 20.032C19.8636 20.2005 19.6394 20.288 19.413 20.288C19.2675 20.288 19.122 20.2519 18.9886 20.1775L12.028 16.3111C11.8847 16.2313 11.7677 16.1142 11.6878 15.9709L7.82031 9.01031C7.63109 8.66906 7.69016 8.2425 7.96687 7.96687C8.24359 7.69015 8.66906 7.63109 9.01031 7.82031L15.9709 11.6867C16.1142 11.7666 16.2313 11.8836 16.3111 12.0269L20.1775 18.9875C20.3667 19.3287 20.3077 19.7553 20.0309 20.0309L20.032 20.032Z" fill="#1E1E1E"/>
</svg>
