<svg width="28" height="28" viewBox="0 0 28 28" fill="none" xmlns="http://www.w3.org/2000/svg">
<path d="M24.501 28H3.50014C1.56959 28 0 26.4077 0 24.4492V9.63589C0 8.36538 0.675964 7.18364 1.76319 6.55338L12.2636 0.466038C13.3344 -0.155346 14.6656 -0.155346 15.7364 0.466038L26.2368 6.55338C27.3251 7.18364 28 8.36538 28 9.63589V24.4492C28 26.4077 26.4304 28 24.4999 28H24.501ZM14.0005 1.77538C13.6998 1.77538 13.4001 1.85306 13.1321 2.0084L2.63167 8.09463C2.08805 8.40976 1.75007 9.00008 1.75007 9.63589V24.4492C1.75007 25.4279 2.53541 26.2246 3.50014 26.2246H24.501C25.4657 26.2246 26.251 25.4279 26.251 24.4492V9.63589C26.251 9.00008 25.913 8.40976 25.3694 8.09463L14.869 2.00729C14.601 1.85195 14.3013 1.77427 14.0005 1.77427V1.77538Z" fill="#1E1E1E"/>
</svg>
