<svg width="28" height="28" viewBox="0 0 28 28" fill="none" xmlns="http://www.w3.org/2000/svg">
<path d="M25.3587 1.78169L19.2438 0.108702C19.2372 0.106533 19.2296 0.105444 19.223 0.103275C18.6674 -0.034425 18.0812 -0.034425 17.5256 0.103275C17.5146 0.106528 17.5026 0.108691 17.4917 0.111944L10.0337 2.27503C9.76352 2.33901 9.47807 2.339 9.20792 2.27286L2.19179 0.376509C2.18632 0.375424 2.17976 0.373252 2.17429 0.372167C1.64822 0.242057 1.10027 0.356992 0.67263 0.687688C0.24499 1.01839 0 1.51714 0 2.05493V21.9098C0 23.3399 0.903402 24.6399 2.24976 25.1506L8.35592 27.7625C8.36905 27.768 8.38217 27.7734 8.3953 27.7788C8.79122 27.9263 9.20792 28 9.62462 28C10.0413 28 10.4569 27.9263 10.854 27.7788C10.8714 27.7723 10.8889 27.7647 10.9064 27.7571L17.7848 24.6833C18.1719 24.5456 18.5952 24.5477 18.9813 24.6887L25.6168 27.3321C25.6234 27.3343 25.6299 27.3375 25.6354 27.3397C26.1724 27.5392 26.775 27.4655 27.2464 27.1413C27.7178 26.8171 28 26.2847 28 25.7155V5.14505C28 3.55336 26.915 2.17203 25.3598 1.78169H25.3587ZM17.0935 23.0894L10.4996 26.0364V3.94803C10.4996 3.94803 10.504 3.94696 10.5072 3.94587L17.4993 1.91831V22.9582C17.3801 22.9886 17.262 23.0255 17.145 23.0677C17.1275 23.0742 17.11 23.0818 17.0925 23.0894H17.0935Z" fill="#1E1E1E"/>
</svg>
