<svg width="28" height="28" viewBox="0 0 28 28" fill="none" xmlns="http://www.w3.org/2000/svg">
<path d="M25.3587 1.7817L19.2438 0.108698C19.2372 0.10653 19.2307 0.105444 19.223 0.103275C18.6674 -0.034425 18.0801 -0.034425 17.5256 0.103275C17.5146 0.106528 17.5037 0.108698 17.4917 0.111951L10.0337 2.27503C9.76352 2.339 9.47807 2.339 9.20792 2.27286L2.19179 0.376509C2.18632 0.375424 2.17976 0.373255 2.17429 0.372171C1.64822 0.24206 1.10027 0.356992 0.67263 0.687688C0.24499 1.01839 0 1.51714 0 2.05493V21.9098C0 23.3399 0.903402 24.6399 2.24976 25.1506L8.35592 27.7625C8.36905 27.768 8.38217 27.7734 8.3953 27.7788C8.79122 27.9263 9.20792 28 9.62462 28C10.0413 28 10.4569 27.9263 10.854 27.7788C10.8714 27.7723 10.8889 27.7647 10.9064 27.7571L17.7848 24.6833C18.1719 24.5456 18.5952 24.5477 18.9813 24.6887L25.6168 27.3321C25.6234 27.3343 25.6299 27.3375 25.6354 27.3397C26.1724 27.5392 26.775 27.4655 27.2464 27.1413C27.7178 26.8171 28 26.2847 28 25.7155V5.14505C28 3.55336 26.915 2.17203 25.3598 1.7817H25.3587ZM19.6222 23.0753C19.6156 23.0732 19.6091 23.0699 19.6036 23.0677C18.8107 22.7728 17.9379 22.7728 17.146 23.0677C17.1285 23.0742 17.111 23.0818 17.0935 23.0894L10.4996 26.0364V6.36592C10.4996 5.88668 10.108 5.49851 9.62462 5.49851C9.14121 5.49851 8.74966 5.88668 8.74966 6.36592V26.0418L2.92457 23.5502C2.91145 23.5448 2.89832 23.5394 2.8852 23.535C2.20601 23.2824 1.74993 22.6297 1.74993 21.9108V2.05601L8.75731 3.9502C8.76278 3.95129 8.76934 3.95346 8.77481 3.95454C9.33042 4.09224 9.91774 4.09224 10.4722 3.95454C10.4832 3.95129 10.4941 3.94912 10.5062 3.94586L17.4982 1.91723V20.4612C17.4982 20.9404 17.8898 21.3286 18.3732 21.3286C18.8566 21.3286 19.2482 20.9404 19.2482 20.4612V1.90964L24.9015 3.45687C24.9081 3.45904 24.9157 3.46012 24.9223 3.46229C25.7032 3.65529 26.2479 4.34812 26.2479 5.14505L26.2512 25.7166L19.6211 23.0753H19.6222Z" fill="#1E1E1E"/>
</svg>
