<svg width="28" height="28" viewBox="0 0 28 28" fill="none" xmlns="http://www.w3.org/2000/svg">
<path d="M23.8285 4.03197C21.1401 1.38065 17.5778 -0.0511072 13.8 0.00139429C10.1524 0.0517082 6.71147 1.5119 4.11166 4.11182C1.51184 6.71174 0.0517062 10.1528 0.00139423 13.8005C-0.0511052 17.5796 1.3806 21.1409 4.03182 23.8294C6.68413 26.519 10.2235 28 14.0001 28H25.375C26.822 28 28 26.822 28 25.3749V13.9996C28 10.2228 26.5191 6.6833 23.8296 4.03088L23.8285 4.03197ZM8.53036 9.40682H16.1865C16.9117 9.40682 17.499 9.99418 17.499 10.7194C17.499 11.4445 16.9117 12.0319 16.1865 12.0319H8.53036C7.80522 12.0319 7.21788 11.4445 7.21788 10.7194C7.21788 9.99418 7.80522 9.40682 8.53036 9.40682ZM20.5615 18.5946H8.53036C7.80522 18.5946 7.21788 18.0072 7.21788 17.282C7.21788 16.5569 7.80522 15.9695 8.53036 15.9695H20.5615C21.2866 15.9695 21.874 16.5569 21.874 17.282C21.874 18.0072 21.2866 18.5946 20.5615 18.5946Z" fill="#1E1E1E"/>
</svg>
