<svg width="28" height="28" viewBox="0 0 28 28" fill="none" xmlns="http://www.w3.org/2000/svg">
<path d="M23.2969 15.3125H18.0283C17.6509 14.0492 16.4784 13.125 15.0938 13.125C13.7091 13.125 12.5366 14.0492 12.1592 15.3125H5.25C3.32063 15.3125 1.75 13.7419 1.75 11.8125C1.75 9.88313 3.32063 8.3125 5.25 8.3125H17.0231C18.4111 11.0534 21.6727 12.5344 21.8477 12.612C21.9603 12.6623 22.0817 12.6875 22.2031 12.6875C22.3245 12.6875 22.4448 12.6623 22.5586 12.612C22.7806 12.5136 28 10.1434 28 5.79688C28 2.60094 25.3991 0 22.2031 0C19.0072 0 16.4062 2.60094 16.4062 5.79688C16.4062 6.05938 16.4259 6.31422 16.462 6.5625H5.25C2.35484 6.5625 0 8.91734 0 11.8125C0 14.7077 2.35484 17.0625 5.25 17.0625H12.1592C12.5366 18.3258 13.7091 19.25 15.0938 19.25C16.4784 19.25 17.6509 18.3258 18.0283 17.0625H23.2969C24.9255 17.0625 26.25 18.387 26.25 20.0156C26.25 21.6442 24.9255 22.9688 23.2969 22.9688H8.21953C7.81703 21.0962 6.14797 19.6875 4.15625 19.6875C1.86484 19.6875 0 21.5523 0 23.8438C0 26.1352 1.86484 28 4.15625 28C6.14797 28 7.81594 26.5913 8.21953 24.7188H23.2969C25.8902 24.7188 28 22.6089 28 20.0156C28 17.4223 25.8902 15.3125 23.2969 15.3125ZM22.2031 3.28125C23.59 3.28125 24.7188 4.41 24.7188 5.79688C24.7188 7.18375 23.59 8.3125 22.2031 8.3125C20.8162 8.3125 19.6875 7.18375 19.6875 5.79688C19.6875 4.41 20.8162 3.28125 22.2031 3.28125Z" fill="#1E1E1E"/>
</svg>
