<svg width="28" height="28" viewBox="0 0 28 28" fill="none" xmlns="http://www.w3.org/2000/svg">
<path d="M14 0C6.28031 0 0 6.28031 0 14C0 21.7197 6.28031 28 14 28C21.7197 28 28 21.7197 28 14C28 6.28031 21.7197 0 14 0ZM14.875 26.2183V24.9375C14.875 24.4541 14.4834 24.0625 14 24.0625C13.5166 24.0625 13.125 24.4541 13.125 24.9375V26.2183C7.06672 25.7884 2.21156 20.9333 1.78172 14.875H3.0625C3.54594 14.875 3.9375 14.4834 3.9375 14C3.9375 13.5166 3.54594 13.125 3.0625 13.125H1.78172C2.21156 7.06672 7.06672 2.21156 13.125 1.78172V3.0625C13.125 3.54594 13.5166 3.9375 14 3.9375C14.4834 3.9375 14.875 3.54594 14.875 3.0625V1.78172C20.9333 2.21156 25.7884 7.06672 26.2183 13.125H24.9375C24.4541 13.125 24.0625 13.5166 24.0625 14C24.0625 14.4834 24.4541 14.875 24.9375 14.875H26.2183C25.7884 20.9333 20.9333 25.7884 14.875 26.2183Z" fill="#1E1E1E"/>
<path d="M16.3122 12.028C16.2323 11.8847 16.1153 11.7677 15.972 11.6878L9.01141 7.82031C8.67016 7.63109 8.24359 7.69016 7.96797 7.96687C7.69125 8.24359 7.63219 8.66906 7.82141 9.01031L11.6889 15.9709C11.7687 16.1142 11.8858 16.2313 12.0291 16.3111L18.9897 20.1775C19.1231 20.2519 19.2697 20.288 19.4141 20.288C19.6405 20.288 19.8647 20.2005 20.0331 20.032C20.3098 19.7553 20.3689 19.3298 20.1797 18.9886L16.3133 12.028H16.3122ZM13.0966 14.9034L10.838 10.838L14.9034 13.0966L17.162 17.1609L13.0977 14.9023L13.0966 14.9034Z" fill="#1E1E1E"/>
</svg>
