<svg width="28" height="28" viewBox="0 0 28 28" fill="none" xmlns="http://www.w3.org/2000/svg">
<path d="M20.5615 16.4071H8.53036C8.04693 16.4071 7.65537 16.7987 7.65537 17.2821C7.65537 17.7656 8.04693 18.1571 8.53036 18.1571H20.5615C21.0449 18.1571 21.4365 17.7656 21.4365 17.2821C21.4365 16.7987 21.0449 16.4071 20.5615 16.4071Z" fill="#1E1E1E"/>
<path d="M8.53036 11.5945H16.1865C16.67 11.5945 17.0615 11.2029 17.0615 10.7195C17.0615 10.236 16.67 9.84444 16.1865 9.84444H8.53036C8.04693 9.84444 7.65537 10.236 7.65537 10.7195C7.65537 11.2029 8.04693 11.5945 8.53036 11.5945Z" fill="#1E1E1E"/>
<path d="M23.8285 4.03212C21.1401 1.38081 17.5778 -0.0542153 13.8 0.00156723C10.1524 0.0518809 6.71147 1.51207 4.11166 4.11197C1.51184 6.71187 0.0517062 10.1529 0.00139423 13.8006C-0.0511052 17.5796 1.3806 21.1409 4.03182 23.8294C6.68413 26.519 10.2235 28 14.0001 28H25.375C26.822 28 28 26.822 28 25.3749V13.9997C28 10.2229 26.5191 6.68343 23.8296 4.03103L23.8285 4.03212ZM26.2489 25.376C26.2489 25.8584 25.8563 26.2511 25.3739 26.2511H13.9991C10.6949 26.2511 7.5974 24.9549 5.27649 22.6022C2.95667 20.2495 1.70434 17.1334 1.75028 13.8258C1.79512 10.6363 3.07261 7.62517 5.34868 5.35012C7.62475 3.07507 10.6347 1.79645 13.8241 1.75161C13.8831 1.75161 13.9411 1.75051 14.0001 1.75051C17.2409 1.75051 20.2891 2.9996 22.6002 5.27793C24.9528 7.59892 26.2489 10.6965 26.2489 14.0008V25.376Z" fill="#1E1E1E"/>
</svg>
