<svg width="28" height="28" viewBox="0 0 28 28" fill="none" xmlns="http://www.w3.org/2000/svg">
<path d="M23.2969 15.3125H18.0283C17.6509 14.0492 16.4784 13.125 15.0937 13.125C13.7091 13.125 12.5366 14.0492 12.1592 15.3125H5.25C3.32062 15.3125 1.75 13.743 1.75 11.8125C1.75 9.88203 3.32062 8.3125 5.25 8.3125H17.0231C18.4111 11.0534 21.6727 12.5344 21.8477 12.612C21.9603 12.6623 22.0817 12.6875 22.2031 12.6875C22.3245 12.6875 22.4448 12.6623 22.5586 12.612C22.7806 12.5136 28 10.1434 28 5.79687C28 2.60094 25.3991 0 22.2031 0C19.0072 0 16.4062 2.60094 16.4062 5.79687C16.4062 6.05937 16.4259 6.31422 16.462 6.5625H5.25C2.35484 6.5625 0 8.91734 0 11.8125C0 14.7077 2.35484 17.0625 5.25 17.0625H12.1592C12.5366 18.3258 13.7091 19.25 15.0937 19.25C16.4784 19.25 17.6509 18.3258 18.0283 17.0625H23.2969C24.9255 17.0625 26.25 18.387 26.25 20.0156C26.25 21.6442 24.9255 22.9687 23.2969 22.9687H8.21953C7.81703 21.0962 6.14797 19.6875 4.15625 19.6875C1.86484 19.6875 0 21.5523 0 23.8437C0 26.1352 1.86484 28 4.15625 28C6.14797 28 7.81594 26.5912 8.21953 24.7187H23.2969C25.8902 24.7187 28 22.6089 28 20.0156C28 17.4223 25.8902 15.3125 23.2969 15.3125ZM22.2031 1.75C24.4344 1.75 26.25 3.56562 26.25 5.79687C26.25 8.45687 23.2509 10.2802 22.2031 10.8347C21.1542 10.2791 18.1562 8.45578 18.1562 5.79687C18.1562 3.56562 19.9719 1.75 22.2031 1.75ZM15.0937 17.5C14.3697 17.5 13.7812 16.9116 13.7812 16.1875C13.7812 15.4634 14.3697 14.875 15.0937 14.875C15.8178 14.875 16.4062 15.4634 16.4062 16.1875C16.4062 16.9116 15.8178 17.5 15.0937 17.5ZM4.15625 26.25C2.82953 26.25 1.75 25.1705 1.75 23.8437C1.75 22.517 2.82953 21.4375 4.15625 21.4375C5.48297 21.4375 6.5625 22.517 6.5625 23.8437C6.5625 25.1705 5.48297 26.25 4.15625 26.25Z" fill="#1E1E1E"/>
<path d="M22.2031 8.3125C23.59 8.3125 24.7187 7.18375 24.7187 5.79687C24.7187 4.41 23.59 3.28125 22.2031 3.28125C20.8162 3.28125 19.6875 4.41 19.6875 5.79687C19.6875 7.18375 20.8162 8.3125 22.2031 8.3125Z" fill="#1E1E1E"/>
</svg>
